solid CATIA STL
  facet normal  0.000000e+000  0.000000e+000  1.000000e+000
    outer loop
      vertex -2.828427e-001  2.828427e-001  4.000000e+001
      vertex  2.828427e-001  2.828427e-001  4.000000e+001
      vertex  2.449213e-017  4.000000e-001  4.000000e+001
    endloop
  endfacet
  facet normal  -0.000000e+000  0.000000e+000  1.000000e+000
    outer loop
      vertex  2.828427e-001  2.828427e-001  4.000000e+001
      vertex -2.828427e-001  2.828427e-001  4.000000e+001
      vertex  4.000000e-001  0.000000e+000  4.000000e+001
    endloop
  endfacet
  facet normal  0.000000e+000  0.000000e+000  1.000000e+000
    outer loop
      vertex  4.000000e-001  0.000000e+000  4.000000e+001
      vertex -2.828427e-001  2.828427e-001  4.000000e+001
      vertex -4.000000e-001  4.898425e-017  4.000000e+001
    endloop
  endfacet
  facet normal  0.000000e+000  0.000000e+000  1.000000e+000
    outer loop
      vertex  4.000000e-001  0.000000e+000  4.000000e+001
      vertex -4.000000e-001  4.898425e-017  4.000000e+001
      vertex  2.828427e-001 -2.828427e-001  4.000000e+001
    endloop
  endfacet
  facet normal  0.000000e+000  0.000000e+000  1.000000e+000
    outer loop
      vertex  2.828427e-001 -2.828427e-001  4.000000e+001
      vertex -4.000000e-001  4.898425e-017  4.000000e+001
      vertex -2.828427e-001 -2.828427e-001  4.000000e+001
    endloop
  endfacet
  facet normal  -0.000000e+000  0.000000e+000  1.000000e+000
    outer loop
      vertex  2.828427e-001 -2.828427e-001  4.000000e+001
      vertex -2.828427e-001 -2.828427e-001  4.000000e+001
      vertex -7.347638e-017 -4.000000e-001  4.000000e+001
    endloop
  endfacet
  facet normal  0.000000e+000  0.000000e+000 -1.000000e+000
    outer loop
      vertex  2.449213e-017  4.000000e-001  0.000000e+000
      vertex  2.828427e-001  2.828427e-001  0.000000e+000
      vertex -2.828427e-001  2.828427e-001  0.000000e+000
    endloop
  endfacet
  facet normal  0.000000e+000  0.000000e+000 -1.000000e+000
    outer loop
      vertex -7.347638e-017 -4.000000e-001  0.000000e+000
      vertex -2.828427e-001 -2.828427e-001  0.000000e+000
      vertex  2.828427e-001 -2.828427e-001  0.000000e+000
    endloop
  endfacet
  facet normal  0.000000e+000  0.000000e+000 -1.000000e+000
    outer loop
      vertex  2.828427e-001 -2.828427e-001  0.000000e+000
      vertex -2.828427e-001 -2.828427e-001  0.000000e+000
      vertex -4.000000e-001  4.898425e-017  0.000000e+000
    endloop
  endfacet
  facet normal  0.000000e+000  0.000000e+000 -1.000000e+000
    outer loop
      vertex  2.828427e-001 -2.828427e-001  0.000000e+000
      vertex -4.000000e-001  4.898425e-017  0.000000e+000
      vertex  4.000000e-001  0.000000e+000  0.000000e+000
    endloop
  endfacet
  facet normal  0.000000e+000  0.000000e+000 -1.000000e+000
    outer loop
      vertex  4.000000e-001  0.000000e+000  0.000000e+000
      vertex -4.000000e-001  4.898425e-017  0.000000e+000
      vertex -2.828427e-001  2.828427e-001  0.000000e+000
    endloop
  endfacet
  facet normal  0.000000e+000  0.000000e+000 -1.000000e+000
    outer loop
      vertex  4.000000e-001  0.000000e+000  0.000000e+000
      vertex -2.828427e-001  2.828427e-001  0.000000e+000
      vertex  2.828427e-001  2.828427e-001  0.000000e+000
    endloop
  endfacet
  facet normal  9.238796e-001 -3.826834e-001  0.000000e+000
    outer loop
      vertex  4.000000e-001  0.000000e+000  0.000000e+000
      vertex  4.000000e-001  0.000000e+000  4.000000e+001
      vertex  2.828427e-001 -2.828427e-001  0.000000e+000
    endloop
  endfacet
  facet normal  9.238796e-001 -3.826834e-001  0.000000e+000
    outer loop
      vertex  2.828427e-001 -2.828427e-001  0.000000e+000
      vertex  4.000000e-001  0.000000e+000  4.000000e+001
      vertex  2.828427e-001 -2.828427e-001  4.000000e+001
    endloop
  endfacet
  facet normal  3.826834e-001 -9.238796e-001  0.000000e+000
    outer loop
      vertex  2.828427e-001 -2.828427e-001  0.000000e+000
      vertex  2.828427e-001 -2.828427e-001  4.000000e+001
      vertex -7.347638e-017 -4.000000e-001  0.000000e+000
    endloop
  endfacet
  facet normal  3.826834e-001 -9.238796e-001  0.000000e+000
    outer loop
      vertex -7.347638e-017 -4.000000e-001  0.000000e+000
      vertex  2.828427e-001 -2.828427e-001  4.000000e+001
      vertex -7.347638e-017 -4.000000e-001  4.000000e+001
    endloop
  endfacet
  facet normal -3.826834e-001 -9.238796e-001  -0.000000e+000
    outer loop
      vertex -7.347638e-017 -4.000000e-001  0.000000e+000
      vertex -7.347638e-017 -4.000000e-001  4.000000e+001
      vertex -2.828427e-001 -2.828427e-001  0.000000e+000
    endloop
  endfacet
  facet normal -3.826834e-001 -9.238796e-001  0.000000e+000
    outer loop
      vertex -2.828427e-001 -2.828427e-001  0.000000e+000
      vertex -7.347638e-017 -4.000000e-001  4.000000e+001
      vertex -2.828427e-001 -2.828427e-001  4.000000e+001
    endloop
  endfacet
  facet normal -9.238796e-001 -3.826834e-001  -0.000000e+000
    outer loop
      vertex -2.828427e-001 -2.828427e-001  0.000000e+000
      vertex -2.828427e-001 -2.828427e-001  4.000000e+001
      vertex -4.000000e-001  4.898425e-017  0.000000e+000
    endloop
  endfacet
  facet normal -9.238796e-001 -3.826834e-001  0.000000e+000
    outer loop
      vertex -4.000000e-001  4.898425e-017  0.000000e+000
      vertex -2.828427e-001 -2.828427e-001  4.000000e+001
      vertex -4.000000e-001  4.898425e-017  4.000000e+001
    endloop
  endfacet
  facet normal -9.238796e-001  3.826834e-001  0.000000e+000
    outer loop
      vertex -4.000000e-001  4.898425e-017  0.000000e+000
      vertex -4.000000e-001  4.898425e-017  4.000000e+001
      vertex -2.828427e-001  2.828427e-001  0.000000e+000
    endloop
  endfacet
  facet normal -9.238796e-001  3.826834e-001  0.000000e+000
    outer loop
      vertex -2.828427e-001  2.828427e-001  0.000000e+000
      vertex -4.000000e-001  4.898425e-017  4.000000e+001
      vertex -2.828427e-001  2.828427e-001  4.000000e+001
    endloop
  endfacet
  facet normal -3.826834e-001  9.238796e-001  0.000000e+000
    outer loop
      vertex -2.828427e-001  2.828427e-001  0.000000e+000
      vertex -2.828427e-001  2.828427e-001  4.000000e+001
      vertex  2.449213e-017  4.000000e-001  0.000000e+000
    endloop
  endfacet
  facet normal -3.826834e-001  9.238796e-001  0.000000e+000
    outer loop
      vertex  2.449213e-017  4.000000e-001  0.000000e+000
      vertex -2.828427e-001  2.828427e-001  4.000000e+001
      vertex  2.449213e-017  4.000000e-001  4.000000e+001
    endloop
  endfacet
  facet normal  3.826834e-001  9.238796e-001  0.000000e+000
    outer loop
      vertex  2.449213e-017  4.000000e-001  0.000000e+000
      vertex  2.449213e-017  4.000000e-001  4.000000e+001
      vertex  2.828427e-001  2.828427e-001  0.000000e+000
    endloop
  endfacet
  facet normal  3.826834e-001  9.238796e-001  -0.000000e+000
    outer loop
      vertex  2.828427e-001  2.828427e-001  0.000000e+000
      vertex  2.449213e-017  4.000000e-001  4.000000e+001
      vertex  2.828427e-001  2.828427e-001  4.000000e+001
    endloop
  endfacet
  facet normal  9.238796e-001  3.826834e-001  0.000000e+000
    outer loop
      vertex  2.828427e-001  2.828427e-001  0.000000e+000
      vertex  2.828427e-001  2.828427e-001  4.000000e+001
      vertex  4.000000e-001  0.000000e+000  0.000000e+000
    endloop
  endfacet
  facet normal  9.238796e-001  3.826834e-001  -0.000000e+000
    outer loop
      vertex  4.000000e-001  0.000000e+000  0.000000e+000
      vertex  2.828427e-001  2.828427e-001  4.000000e+001
      vertex  4.000000e-001  0.000000e+000  4.000000e+001
    endloop
  endfacet
endsolid CATIA STL
